<?xml version="1.0" encoding="UTF-8"?>
<svg width="1440px" height="1022px" viewBox="0 0 1440 1022" version="1.1" xmlns="http://www.w3.org/2000/svg" xmlns:xlink="http://www.w3.org/1999/xlink">
    <!-- Generator: Sketch 49.3 (51167) - http://www.bohemiancoding.com/sketch -->
    <title>Group</title>
    <desc>Created with Sketch.</desc>
    <defs>
        <linearGradient x1="2.15169266%" y1="1.04650807%" x2="2.15169271%" y2="100%" id="linearGradient-1">
            <stop stop-color="#4FACFE" offset="0%"></stop>
            <stop stop-color="#00F2FE" offset="100%"></stop>
        </linearGradient>
        <path d="M481.893471,0 L1440,0 L1440,1021 L0,1021 L0,823.340611 C35.277788,495.1506 220.694804,197.993948 481.893471,2.84217094e-14 Z" id="path-2"></path>
        <path d="M1440,304.563269 L1440,1022 L0,1022 L0,991.912592 C59.1853204,536.55086 485.214484,178 954.083828,178 C1137.02804,178 1302.86016,223.075315 1440,304.563269 Z" id="path-4"></path>
        <path d="M1440,963.913344 L1440,1022 L0,1022 L0,1019.11945 C133.838994,742.097584 417.484523,551 745.763284,551 C1031.80849,551 1288.16574,723.095688 1440,963.913344 Z" id="path-6"></path>
    </defs>
    <g id="final-redesign" stroke="none" stroke-width="1" fill="none" fill-rule="evenodd">
        <g id="Premium-button" transform="translate(-132.000000, -245.000000)">
            <g id="Group" transform="translate(132.000000, 245.000000)">
                <rect id="Rectangle-15" fill="url(#linearGradient-1)" x="0" y="0" width="1440" height="1022"></rect>
                <g id="Group-17">
                    <mask id="mask-3" fill="white">
                        <use xlink:href="#path-2"></use>
                    </mask>
                    <use id="Combined-Shape" fill="#005BEA" opacity="0.326483243" xlink:href="#path-2"></use>
                    <mask id="mask-5" fill="white">
                        <use xlink:href="#path-4"></use>
                    </mask>
                    <use id="Combined-Shape" fill="#005BEA" opacity="0.326483243" xlink:href="#path-4"></use>
                    <mask id="mask-7" fill="white">
                        <use xlink:href="#path-6"></use>
                    </mask>
                    <use id="Combined-Shape" fill="#005BEA" opacity="0.470561594" xlink:href="#path-6"></use>
                </g>
            </g>
        </g>
    </g>
</svg>