<?xml version="1.0" ?><!DOCTYPE svg  PUBLIC '-//W3C//DTD SVG 1.1//EN'  'http://www.w3.org/Graphics/SVG/1.1/DTD/svg11.dtd'><svg height="512px" style="enable-background:new 0 0 512 512;" version="1.1" viewBox="0 0 512 512" width="512px" xml:space="preserve" xmlns="http://www.w3.org/2000/svg" xmlns:xlink="http://www.w3.org/1999/xlink"><g id="comp_x5F_128-firefox"><g><path d="M477.265,236.206c-0.651-4.181-1.302-6.598-1.302-6.598s-1.673,1.859-4.368,5.483c-0.837-9.943-2.602-19.702-5.39-29.366    c-3.438-11.987-7.898-23.604-13.475-34.755c-3.531-7.434-7.62-14.497-12.358-21.188c-1.674-2.51-3.44-5.019-5.205-7.342    c-8.178-13.381-17.657-21.652-28.53-37.172c-7.062-11.895-11.985-24.997-14.311-38.658c-2.973,8.271-5.297,16.728-6.877,25.369    c-11.243-11.337-20.907-19.328-26.855-24.812c-28.807-27.135-25.463-41.168-25.463-41.168s-54.178,60.498-30.759,123.503    c8.085,21.373,22.117,40.053,40.331,53.806c22.674,18.772,47.207,33.454,60.125,71.184c-10.408-19.793-26.112-36.429-45.35-47.857    c5.762,13.66,8.734,28.436,8.642,43.212c0,56.688-46.092,102.687-102.78,102.593c-7.713,0-15.332-0.835-22.767-2.602    c-8.828-1.673-17.376-4.554-25.461-8.644c-11.989-7.247-22.303-16.82-30.48-28.156l-0.187-0.279l1.859,0.65    c4.274,1.486,8.549,2.603,13.01,3.438c17.377,3.718,35.591,1.582,51.668-6.133c16.263-9.013,26.021-15.703,34.013-13.011h0.187    c7.805,2.511,13.938-5.111,8.362-13.01c-9.664-12.453-25.461-18.585-41.075-15.797c-16.262,2.322-31.13,13.939-52.412,2.695    c-1.394-0.745-2.695-1.487-3.997-2.324c-1.486-0.835,4.555,1.209,3.161,0.279c-4.646-2.323-9.107-5.019-13.382-7.992    c-0.279-0.279,3.253,1.023,2.881,0.744c-5.482-3.717-10.222-8.549-13.94-14.125c-3.81-6.877-4.181-15.241-0.928-22.396    c1.952-3.531,5.019-6.411,8.641-8.086c2.79,1.395,4.462,2.418,4.462,2.418s-1.209-2.323-1.952-3.532    c0.279-0.094,0.464,0,0.743-0.186c2.417,1.022,7.714,3.718,10.593,5.39c1.952,1.022,3.533,2.51,4.834,4.367    c0,0,0.928-0.464,0.278-2.509c-1.022-2.51-2.695-4.646-5.02-6.133h0.187c2.137,1.115,4.182,2.416,6.134,3.811    c1.765-4.09,2.603-8.55,2.415-13.011c0.188-2.415-0.185-4.925-1.022-7.248c-0.743-1.488,0.466-2.045,1.765-0.465    c-0.185-1.208-0.649-2.322-1.115-3.438v-0.093c0,0,0.744-1.022,1.115-1.394c0.929-0.93,1.952-1.767,3.161-2.509    c6.692-4.183,13.754-7.808,21.096-10.78c5.947-2.603,10.871-4.555,11.894-5.204c1.487-0.93,2.882-2.045,4.183-3.254    c4.925-4.181,8.364-10.035,9.479-16.447c0.093-0.837,0.186-1.672,0.28-2.602v-1.395c-0.838-3.252-6.413-5.668-35.686-8.456    c-10.314-1.674-18.586-9.387-20.91-19.608v-0.093c5.577-14.59,15.612-27.042,28.623-35.591c0.743-0.651-2.974,0.185-2.23-0.465    c2.51-1.209,5.018-2.323,7.621-3.253c1.3-0.559-5.577-3.159-11.71-2.51c-3.717,0.187-7.434,1.116-10.872,2.603    c1.488-1.208,5.762-2.88,4.739-2.88c-7.806,1.486-15.333,4.366-22.211,8.362c0-0.744,0.095-1.393,0.466-2.044    c-5.483,2.323-10.223,6.041-13.94,10.688c0.093-0.837,0.186-1.674,0.186-2.511c-2.509,1.859-4.833,3.996-6.784,6.413l-0.093,0.093    c-16.169-6.227-33.733-7.714-50.739-4.367l-0.187-0.093h0.187c-3.532-2.883-6.598-6.228-9.014-10.13l-0.186,0.094l-0.371-0.187    c-1.116-1.672-2.23-3.531-3.439-5.575c-0.836-1.487-1.671-3.161-2.508-4.833c0-0.093-0.093-0.186-0.187-0.186    c-0.372,0-0.556,1.579-0.835,1.207v-0.093c-2.975-7.712-4.368-15.984-4.09-24.347l-0.186,0.093    c-4.739,3.252-8.363,7.992-10.314,13.475c-0.837,1.951-1.487,3.067-2.044,4.183v-0.465c0.093-1.023,0.557-3.067,0.464-2.882    c-0.093,0.187-0.187,0.279-0.279,0.372c-1.394,1.58-2.695,3.438-3.624,5.39c-0.836,1.767-1.58,3.625-2.138,5.483    c-0.092,0.278,0-0.279,0-0.93s0.095-1.857,0-1.579l-0.279,0.65c-6.226,13.846-10.129,28.621-11.523,43.769    c-0.371,2.604-0.556,5.204-0.464,7.714v0.186c-4.46,4.833-8.364,10.222-11.801,15.891c-11.246,18.958-19.608,39.495-24.906,60.961    c3.718-8.177,8.178-15.983,13.289-23.324c-9.944,25.184-15.055,52.039-15.055,79.174c1.672-7.99,3.903-15.797,6.505-23.509    c-1.58,32.06,4.553,64.026,18.028,93.206c18.028,40.424,47.952,74.344,85.773,97.298c15.426,10.407,32.247,18.492,49.996,23.974    c2.323,0.838,4.739,1.676,7.156,2.509c-0.744-0.277-1.487-0.648-2.23-0.929c21.002,6.319,42.934,9.572,64.864,9.572    c77.781,0,103.431-29.645,105.753-32.524c3.811-3.438,6.971-7.62,9.2-12.359c1.487-0.651,2.974-1.302,4.554-1.953l0.929-0.464    l1.767-0.835c11.708-5.485,22.768-12.453,32.805-20.537c15.147-10.874,25.926-26.671,30.572-44.7    c2.787-6.599,2.881-13.94,0.372-20.63c0.836-1.301,1.58-2.603,2.509-3.996c16.728-26.855,26.205-57.522,27.507-89.117v-2.604    C479.029,249.495,478.472,242.805,477.265,236.206L477.265,236.206z M199.405,145.508c-0.371,1.022-0.835,2.138-1.207,3.253    C198.57,147.646,198.941,146.623,199.405,145.508z" fill="#448de0"/></g></g><g id="Layer_1"/></svg>