<svg xmlns="http://www.w3.org/2000/svg" width="45" height="45" viewBox="0 0 45 45">
    <defs>
        <linearGradient id="a" x1="97.681%" x2="3.83%" y1="76.292%" y2="28.086%">
            <stop offset="0%" stop-color="#52188F"/>
            <stop offset="100%" stop-color="#7020C3"/>
        </linearGradient>
        <linearGradient id="b" x1="3.83%" x2="97.681%" y1="28.086%" y2="76.292%">
            <stop offset="0%" stop-color="#52188F"/>
            <stop offset="100%" stop-color="#7020C3"/>
        </linearGradient>
    </defs>
    <g fill="none" fill-rule="evenodd">
        <circle cx="22.5" cy="22.5" r="22.5" fill="#FFF"/>
        <g fill-rule="nonzero">
            <path fill="url(#a)" d="M3.008 5.866c.544-.363 1.088-1.105 1.79-1.616.466-.339 1.106-.56 1.488-.56.39 0 .657.07.905.211.226.128.416.286.88.723.673.635 1.02.923 1.583 1.242.794.45 1.677.682 2.695.682 1.018 0 1.901-.233 2.695-.682.563-.319.91-.607 1.583-1.242.464-.437.654-.595.88-.723.248-.14.516-.211.905-.211.39 0 .658.07.906.211.226.128.416.286.88.723.673.635 1.02.923 1.583 1.242.794.45 1.677.682 2.695.682 1.018 0 1.9-.233 2.694-.682a7.666 7.666 0 0 0 1.68-1.242c.051-.048 2.026-2.47 2.053-2.496L27.9.578c.114-.116-.054.05-.107.1-.383.508-1.43 1.705-1.977 1.972a2.45 2.45 0 0 1-1.053.223 3.14 3.14 0 0 1-.92-.178 3.19 3.19 0 0 1-1.151-.723c-.673-.634-1.02-.923-1.584-1.242-.794-.449-1.677-.682-2.695-.682-1.017 0-1.9.233-2.694.682-.563.319-.91.608-1.584 1.242-.463.437-.653.595-.88.723-.248.14-.515.211-.905.211s-.657-.07-.906-.21c-.226-.129-.415-.287-.88-.724C9.892 1.338 9.544 1.05 8.98.73 8.187.281 7.303.048 6.286.048 4.53.048 2.78.492.003 4.25l3.005 1.616z" transform="translate(7.313 27.747)"/>
            <path fill="url(#b)" d="M8.07 4.624c.674.635 1.021.923 1.584 1.242.794.45 1.677.682 2.695.682 1.018 0 1.901-.233 2.695-.682.563-.319.91-.607 1.583-1.242.464-.437.654-.595.88-.723.248-.14.516-.211.905-.211.39 0 .658.07.906.211.226.128.416.286.88.723.673.635 1.02.923 1.583 1.242.794.45 1.677.682 2.695.682 1.018 0 1.946-.234 2.736-.682 1.835-.922 3.658-3.712 3.686-3.738-1.543 1.411-2.975 2.12-4.295 2.125-1.958.008-3.449-1.844-3.912-2.28-.673-.635-1.02-.924-1.584-1.243-.794-.449-1.677-.682-2.695-.682-1.017 0-1.9.233-2.694.682-.563.319-.91.608-1.584 1.242-.463.437-.653.595-.88.723-.248.14-.515.211-.905.211s-.657-.07-.906-.21c-.226-.129-.415-.287-.88-.724C9.892 1.338 9.544 1.05 8.98.73 8.187.281 7.303.048 6.286.048 5.546.048 2.968-.04 0 4.253c1.585-1.35 3.031-1.95 4.339-1.798 1.962.228 3.516 1.966 3.73 2.169z" transform="translate(7.313 27.747)"/>
        </g>
        <g fill="#252525">
            <path fill-rule="nonzero" d="M31.104 13.922v1.43h3.145v-1.666c0-1.037-1.075-2.004-3.225-2.9l.08 3.136zM23.066 13.922l-.24-3.136c-1.936.675-2.905 1.56-2.905 2.656v1.91h3.145v-1.43z"/>
            <path fill-rule="nonzero" d="M28.744 13.922v11.102h-3.136V13.922h-2.55c-.953 0-1.648.12-2.083.36-.435.241-.789.598-1.062 1.07v-1.91c0-1.644 1.49-2.656 2.906-2.656h8.224c2.036 0 3.225 1.344 3.225 2.9 0 .37-.004.926-.012 1.667-.327-.473-.695-.83-1.104-1.07-.409-.241-1.085-.361-2.029-.361h-2.38z"/>
            <path d="M13.612 22.316v-.003-8.48h-2.028v-3.145h1.792c2.941 0 3.372 2.203 3.372 2.985v8.224l-.001.004h5.863v3.145h-6.3a.15.15 0 0 1-.038-.005c-1.77-.064-2.656-.97-2.66-2.717a87.655 87.655 0 0 1-.006-.007l.006-.001z"/>
        </g>
    </g>
</svg>
